<?xml version="1.0" encoding="utf-8"?>
<!-- Generator: Adobe Illustrator 22.0.0, SVG Export Plug-In . SVG Version: 6.00 Build 0)  -->
<svg xmlns="http://www.w3.org/2000/svg" xmlns:xlink="http://www.w3.org/1999/xlink" version="1.1" id="Layer_1" x="0px" y="0px" viewBox="0 0 256 256" style="enable-background:new 0 0 256 256;" xml:space="preserve" width="512" height="512">
<style type="text/css">
	.st0{fill:#3A312A;}
	.st1{fill:#D7E057;}
	.st2{fill:#8AC6DD;}
	.st3{fill:#87796F;}
	.st4{fill:#B9C239;}
	.st5{fill:#6CA8BF;}
	.st6{fill:#FCE8CB;}
	.st7{fill:#B9BC39;}
	.st8{fill:#68A8BC;}
	.st9{fill:#F16C7A;}
	.st10{fill:#D34E5C;}
	.st11{fill-rule:evenodd;clip-rule:evenodd;fill:#87796F;}
	.st12{fill:#DECAAD;}
	.st13{fill:#695B51;}
	.st14{fill:#6B5B51;}
	.st15{fill-rule:evenodd;clip-rule:evenodd;fill:#FCE8CB;}
	.st16{fill:#F5978A;}
</style>
<g>
	<g>
		<g>
			<path class="st1" d="M25.721,16.34c-0.689,8.179-9.212,9.47-9.212,9.47c7.318,0.344,9.142,9.944,9.142,9.944     c0.156-6.845,9.422-10.045,9.422-10.045C28.131,25.294,25.721,16.34,25.721,16.34z"/>
		</g>
	</g>
	<g>
		<g>
			<path class="st0" d="M35.162,24.212c-5.744-0.344-7.955-8.125-7.993-8.263c-0.189-0.704-0.868-1.167-1.582-1.103     c-0.726,0.065-1.3,0.643-1.361,1.368c-0.578,6.871-7.646,8.066-7.942,8.113c-0.763,0.115-1.313,0.79-1.273,1.561     c0.04,0.77,0.657,1.384,1.428,1.421c6.035,0.284,7.724,8.644,7.739,8.726c0.136,0.712,0.759,1.22,1.473,1.22     c0.041,0,0.083-0.002,0.125-0.005c0.765-0.063,1.358-0.694,1.376-1.461c0.13-5.71,8.331-8.634,8.412-8.662     c0.676-0.234,1.093-0.913,0.996-1.622C36.461,24.796,35.876,24.255,35.162,24.212z M25.577,31.007     c-0.924-1.886-2.34-3.947-4.447-5.28c1.856-1.041,3.698-2.629,4.871-4.916c1.057,1.874,2.654,3.954,4.941,5.223     C29.093,27.135,26.953,28.774,25.577,31.007z"/>
		</g>
	</g>
	<g>
		<g>
			<path class="st1" d="M47.419,26.017c-0.974,11.564-13.024,13.389-13.024,13.389C44.741,39.894,47.32,53.466,47.32,53.466     c0.221-9.677,13.321-14.202,13.321-14.202C50.828,38.676,47.419,26.017,47.419,26.017z"/>
		</g>
	</g>
	<g>
		<g>
			<path class="st0" d="M60.731,37.766c-8.604-0.515-11.832-12.024-11.863-12.141c-0.19-0.702-0.847-1.163-1.584-1.102     c-0.725,0.066-1.298,0.642-1.359,1.367c-0.86,10.215-11.313,11.964-11.755,12.033c-0.763,0.115-1.313,0.79-1.273,1.561     c0.04,0.77,0.657,1.384,1.428,1.421c9.028,0.425,11.499,12.718,11.522,12.842c0.138,0.711,0.76,1.217,1.473,1.217     c0.042,0,0.084-0.001,0.126-0.005c0.765-0.064,1.357-0.693,1.375-1.459c0.193-8.509,12.191-12.777,12.312-12.819     c0.676-0.235,1.092-0.914,0.994-1.623C62.029,38.35,61.445,37.809,60.731,37.766z M47.165,48.112     c-1.357-3.13-3.709-6.907-7.588-8.876c2.931-1.405,6.41-3.914,8.203-8.273c1.551,3.071,4.199,6.88,8.334,8.723     C53.106,41.325,49.191,44.09,47.165,48.112z"/>
		</g>
	</g>
	<g>
		<g>
			<path class="st1" d="M25.721,42.998c-0.689,8.179-9.212,9.471-9.212,9.471c7.318,0.344,9.142,9.944,9.142,9.944     c0.156-6.845,9.422-10.046,9.422-10.046C28.131,51.952,25.721,42.998,25.721,42.998z"/>
		</g>
	</g>
	<g>
		<g>
			<path class="st0" d="M35.162,50.869c-5.767-0.345-7.972-8.185-7.993-8.264c-0.19-0.702-0.863-1.157-1.582-1.102     c-0.726,0.065-1.3,0.643-1.361,1.368c-0.578,6.871-7.646,8.067-7.942,8.114c-0.763,0.115-1.313,0.79-1.273,1.56     c0.04,0.77,0.657,1.384,1.428,1.421c6.035,0.284,7.724,8.644,7.739,8.726c0.136,0.712,0.759,1.22,1.473,1.22     c0.041,0,0.083-0.002,0.125-0.005c0.765-0.063,1.358-0.694,1.376-1.461c0.13-5.709,8.331-8.634,8.412-8.662     c0.676-0.234,1.093-0.913,0.996-1.622C36.461,51.454,35.876,50.912,35.162,50.869z M25.577,57.665     c-0.924-1.886-2.34-3.947-4.447-5.28c1.856-1.042,3.697-2.63,4.871-4.917c1.057,1.874,2.654,3.954,4.941,5.223     C29.093,53.793,26.953,55.432,25.577,57.665z"/>
		</g>
	</g>
	<g>
		<g>
			<path class="st2" d="M129.7,22.31c-0.98-0.83-2.42-0.83-3.4,0l-98.8,83.8v133.55h201V106.11L129.7,22.31z"/>
		</g>
	</g>
	<g>
		<g>
			<path class="st0" d="M229.471,104.966l-98.802-83.801c-1.546-1.308-3.79-1.309-5.34,0.001l-98.8,83.8     C26.193,105.251,26,105.669,26,106.11v61.43c0,0.829,0.672,1.5,1.5,1.5c0.828,0,1.5-0.671,1.5-1.5v-60.735l98.269-83.35     c0.424-0.358,1.039-0.358,1.461-0.001L227,106.805V238.16H29V182.76c0-0.829-0.672-1.5-1.5-1.5c-0.828,0-1.5,0.671-1.5,1.5     v56.899c0,0.829,0.672,1.5,1.5,1.5h201c0.828,0,1.5-0.671,1.5-1.5V106.11C230,105.669,229.807,105.251,229.471,104.966z"/>
		</g>
	</g>
	<g>
		<g>
			<path class="st3" d="M243.059,111.282L134.225,18.968c-3.607-3.054-8.842-3.056-12.453,0.004L12.941,111.282     c-2.948,2.501-3.31,6.919-0.809,9.866c2.502,2.95,6.919,3.31,9.867,0.81L128,32.046l106.001,89.911     c1.316,1.116,2.925,1.662,4.525,1.662c1.984,0,3.956-0.84,5.341-2.472C246.369,118.2,246.006,113.783,243.059,111.282z"/>
		</g>
	</g>
	<g>
		<g>
			<path class="st0" d="M247.001,115.925c-0.186-2.263-1.241-4.318-2.972-5.787L135.194,17.824     c-4.173-3.531-10.224-3.528-14.393,0.004l-108.831,92.31c-1.731,1.469-2.786,3.524-2.972,5.787     c-0.187,2.263,0.52,4.463,1.989,6.193c3.032,3.576,8.405,4.015,11.981,0.983L128,34.013l105.031,89.088     c1.534,1.301,3.486,2.018,5.495,2.018c2.502,0,4.866-1.094,6.485-3.001C246.48,120.388,247.188,118.188,247.001,115.925z      M242.725,120.177c-1.048,1.234-2.578,1.942-4.198,1.942c-1.299,0-2.562-0.464-3.555-1.306L128.971,30.902     c-0.28-0.237-0.626-0.356-0.971-0.356c-0.345,0-0.69,0.119-0.971,0.356L21.028,120.813c-2.314,1.963-5.791,1.676-7.753-0.636     c-0.95-1.12-1.407-2.542-1.287-4.007c0.12-1.464,0.804-2.794,1.924-3.745l108.83-92.309c3.045-2.581,7.467-2.583,10.512-0.004     l108.834,92.313c1.12,0.951,1.804,2.281,1.924,3.745C244.132,117.635,243.675,119.058,242.725,120.177z"/>
		</g>
	</g>
	<g>
		<g>
			<path class="st9" d="M203.208,110.483H52.792c-6.927,0-12.542,5.615-12.542,12.542V239.66h175.5V123.025     C215.75,116.098,210.135,110.483,203.208,110.483z"/>
		</g>
	</g>
	<g>
		<g>
			<path class="st0" d="M203.208,108.983H52.792c-7.743,0-14.042,6.299-14.042,14.042V239.66c0,0.829,0.672,1.5,1.5,1.5h175.5     c0.828,0,1.5-0.671,1.5-1.5V123.025C217.25,115.282,210.951,108.983,203.208,108.983z M214.25,238.16H41.75V123.025     c0-6.088,4.953-11.042,11.042-11.042h150.416c6.089,0,11.042,4.954,11.042,11.042V238.16z"/>
		</g>
	</g>
	<g>
		<g>
			<path class="st6" d="M203.208,110.483H52.792c-6.8,0-12.323,5.415-12.523,12.167h175.462     C215.531,115.898,210.008,110.483,203.208,110.483z"/>
		</g>
	</g>
	<g>
		<g>
			<path class="st0" d="M203.208,108.983H52.792c-7.637,0-13.796,5.984-14.023,13.623c-0.013,0.405,0.141,0.798,0.423,1.089     c0.282,0.291,0.671,0.455,1.076,0.455h119.423c0.828,0,1.5-0.671,1.5-1.5c0-0.829-0.672-1.5-1.5-1.5H41.919     c0.884-5.249,5.395-9.167,10.873-9.167h150.416c5.479,0,9.989,3.918,10.873,9.167h-39.773c-0.828,0-1.5,0.671-1.5,1.5     c0,0.829,0.672,1.5,1.5,1.5h41.424c0.405,0,0.794-0.164,1.076-0.455s0.436-0.684,0.423-1.089     C217.004,114.967,210.845,108.983,203.208,108.983z"/>
		</g>
	</g>
	<g>
		<g>
			<circle class="st1" cx="128" cy="76.162" r="27"/>
		</g>
	</g>
	<g>
		<g>
			<path class="st0" d="M128,47.662c-15.715,0-28.5,12.785-28.5,28.5c0,15.715,12.785,28.5,28.5,28.5s28.5-12.785,28.5-28.5     C156.5,60.447,143.715,47.662,128,47.662z M128,101.662c-14.061,0-25.5-11.439-25.5-25.5c0-14.06,11.439-25.5,25.5-25.5     s25.5,11.44,25.5,25.5C153.5,90.222,142.061,101.662,128,101.662z"/>
		</g>
	</g>
	<g>
		<g>
			<path class="st3" d="M66.302,225.981c-0.128,0-0.248,0-0.369-0.013v7.862c0,3.22,2.61,5.83,5.83,5.83h5.293     c3.22,0,5.83-2.61,5.83-5.83v-7.849H66.302z"/>
		</g>
	</g>
	<g>
		<g>
			<path class="st0" d="M82.886,224.481H66.302c-0.072,0-0.141,0.002-0.207-0.004c-0.422-0.045-0.847,0.09-1.164,0.375     c-0.316,0.285-0.498,0.69-0.498,1.117v7.862c0,4.042,3.288,7.33,7.33,7.33h5.293c4.042,0,7.33-3.288,7.33-7.33v-7.849     C84.386,225.152,83.714,224.481,82.886,224.481z M81.386,233.83c0,2.387-1.942,4.33-4.33,4.33h-5.293     c-2.388,0-4.33-1.942-4.33-4.33v-6.349h13.953V233.83z"/>
		</g>
	</g>
	<g>
		<g>
			<path class="st3" d="M189.698,225.981h-16.637v7.849c0,3.22,2.609,5.83,5.83,5.83h5.293c3.22,0,5.83-2.61,5.83-5.83v-7.856     C189.913,225.981,189.805,225.981,189.698,225.981z"/>
		</g>
	</g>
	<g>
		<g>
			<path class="st0" d="M191.04,224.881c-0.302-0.283-0.698-0.43-1.121-0.403c-0.07,0.004-0.145,0.003-0.221,0.004h-16.638     c-0.828,0-1.5,0.671-1.5,1.5v7.849c0,4.042,3.288,7.33,7.33,7.33h5.293c4.042,0,7.33-3.288,7.33-7.33v-7.855     C191.514,225.561,191.343,225.165,191.04,224.881z M188.514,233.83c0,2.387-1.942,4.33-4.33,4.33h-5.293     c-2.388,0-4.33-1.942-4.33-4.33v-6.349h13.953V233.83z"/>
		</g>
	</g>
	<g>
		<g>
			<path class="st1" d="M189.696,179.498h-0.188l-11.582-25.867c-5.197-11.608-16.729-19.08-29.448-19.08h-40.957     c-12.718,0-24.25,7.472-29.448,19.08l-11.582,25.867h-0.188c-7.237,0-13.103,5.867-13.103,13.104v20.274     c0,7.237,5.867,13.103,13.103,13.103h123.393c7.237,0,13.103-5.867,13.103-13.103v-20.274     C202.8,185.365,196.933,179.498,189.696,179.498z"/>
		</g>
	</g>
	<g>
		<g>
			<path class="st0" d="M190.49,178.019l-11.195-25.001c-5.431-12.129-17.527-19.967-30.816-19.967h-40.957     c-13.289,0-25.386,7.837-30.816,19.967L65.51,178.019c-7.685,0.414-13.81,6.796-13.81,14.583v20.274     c0,8.052,6.551,14.604,14.603,14.604h123.393c8.053,0,14.604-6.551,14.604-14.604v-20.274     C204.3,184.815,198.175,178.433,190.49,178.019z M201.3,212.876c0,6.398-5.205,11.604-11.604,11.604H66.304     c-6.398,0-11.603-5.206-11.603-11.604v-20.274c0-6.398,5.205-11.604,11.603-11.604h0.188c0.591,0,1.127-0.347,1.369-0.887     l11.583-25.867c4.948-11.051,15.97-18.192,28.078-18.192h40.957c12.108,0,23.13,7.141,28.078,18.193l11.583,25.866     c0.242,0.54,0.778,0.887,1.369,0.887h0.188c6.398,0,11.604,5.205,11.604,11.604V212.876z"/>
		</g>
	</g>
	<g>
		<g>
			<path class="st2" d="M172.673,174.704l-7.928-17.707c-3.191-7.126-10.27-11.713-18.077-11.713h-37.335     c-7.808,0-14.887,4.587-18.077,11.713l-7.928,17.707c-1.008,2.251,0.639,4.794,3.106,4.794h83.135     C172.034,179.498,173.681,176.956,172.673,174.704z"/>
		</g>
	</g>
	<g>
		<g>
			<path class="st0" d="M174.043,174.091l-7.929-17.707c-3.427-7.654-11.061-12.6-19.447-12.6h-37.334     c-8.387,0-16.021,4.946-19.447,12.6l-7.929,17.707c-0.682,1.523-0.547,3.269,0.36,4.669c0.908,1.4,2.446,2.237,4.115,2.237     h83.135c1.669,0,3.207-0.837,4.115-2.237C174.59,177.36,174.725,175.615,174.043,174.091z M171.165,177.129     c-0.357,0.552-0.94,0.868-1.598,0.868H86.433c-0.657,0-1.24-0.316-1.598-0.868c-0.358-0.552-0.408-1.212-0.14-1.812l7.929-17.707     c2.944-6.576,9.503-10.825,16.709-10.825h37.334c7.206,0,13.765,4.249,16.709,10.825l7.929,17.707     C171.573,175.917,171.523,176.578,171.165,177.129z"/>
		</g>
	</g>
	<g>
		<g>
			<path class="st2" d="M80.531,193.323c-4.863,0-8.805,3.942-8.805,8.805c0,4.863,3.942,8.805,8.805,8.805     c4.863,0,8.805-3.942,8.805-8.805C89.336,197.265,85.394,193.323,80.531,193.323z"/>
		</g>
	</g>
	<g>
		<g>
			<path class="st0" d="M80.531,191.823c-5.682,0-10.305,4.623-10.305,10.305c0,5.682,4.623,10.305,10.305,10.305     c5.682,0,10.305-4.622,10.305-10.305C90.836,196.446,86.213,191.823,80.531,191.823z M80.531,209.433     c-4.027,0-7.305-3.277-7.305-7.305c0-4.028,3.277-7.305,7.305-7.305c4.027,0,7.305,3.277,7.305,7.305     C87.836,206.156,84.559,209.433,80.531,209.433z"/>
		</g>
	</g>
	<g>
		<g>
			<path class="st2" d="M175.416,193.323c-4.863,0-8.805,3.942-8.805,8.805c0,4.863,3.942,8.805,8.805,8.805     c4.863,0,8.805-3.942,8.805-8.805C184.221,197.265,180.279,193.323,175.416,193.323z"/>
		</g>
	</g>
	<g>
		<g>
			<path class="st0" d="M175.416,191.823c-5.682,0-10.305,4.623-10.305,10.305c0,5.682,4.623,10.305,10.305,10.305     c5.682,0,10.305-4.622,10.305-10.305C185.721,196.446,181.098,191.823,175.416,191.823z M175.416,209.433     c-4.027,0-7.305-3.277-7.305-7.305c0-4.028,3.277-7.305,7.305-7.305c4.027,0,7.305,3.277,7.305,7.305     C182.721,206.156,179.443,209.433,175.416,209.433z"/>
		</g>
	</g>
	<g>
		<g>
			<path class="st3" d="M146.329,198.624h-35.988c-3.03,0-5.486,2.456-5.486,5.486v6.47c0,3.03,2.456,5.486,5.486,5.486h35.988     c3.03,0,5.486-2.456,5.486-5.486v-6.47C151.815,201.08,149.359,198.624,146.329,198.624z"/>
		</g>
	</g>
	<g>
		<g>
			<path class="st0" d="M146.329,197.124h-35.987c-3.853,0-6.986,3.134-6.986,6.986v6.47c0,3.852,3.134,6.986,6.986,6.986h35.987     c3.852,0,6.986-3.134,6.986-6.986v-6.471C153.315,200.257,150.182,197.124,146.329,197.124z M150.315,210.58     c0,2.198-1.788,3.986-3.986,3.986h-35.987c-2.198,0-3.986-1.788-3.986-3.986v-6.47c0-2.198,1.788-3.986,3.986-3.986h35.987     c2.198,0,3.986,1.788,3.986,3.986V210.58z"/>
		</g>
	</g>
	<g>
		<g>
			<path class="st3" d="M67.25,160.866l-9.301,1.057c-2.705,0.308-4.749,2.597-4.749,5.319v0c0,2.677,1.978,4.943,4.631,5.304     l9.369,1.275c1.361,0.186,2.572-0.872,2.572-2.246v-8.458C69.772,161.765,68.594,160.713,67.25,160.866z"/>
		</g>
	</g>
	<g>
		<g>
			<path class="st0" d="M70.015,160.309c-0.799-0.713-1.873-1.054-2.933-0.933l-9.302,1.057c-3.466,0.394-6.079,3.321-6.079,6.81     c0,3.411,2.549,6.33,5.929,6.79l9.369,1.275c0.17,0.023,0.34,0.035,0.509,0.035c0.904,0,1.785-0.327,2.476-0.929     c0.82-0.715,1.29-1.75,1.29-2.837v-8.458C71.272,162.046,70.814,161.023,70.015,160.309z M68.272,171.576     c0,0.303-0.164,0.492-0.263,0.577c-0.098,0.086-0.304,0.227-0.606,0.182c-0.001,0-0.001,0-0.001,0l-9.369-1.275     c-1.9-0.259-3.333-1.9-3.333-3.818c0-1.961,1.47-3.607,3.418-3.829l9.301-1.057c0.031-0.004,0.062-0.005,0.091-0.005     c0.248,0,0.421,0.119,0.507,0.195c0.096,0.085,0.256,0.273,0.256,0.572V171.576z"/>
		</g>
	</g>
	<g>
		<g>
			<path class="st3" d="M198.051,161.923l-9.301-1.057c-1.345-0.153-2.523,0.899-2.523,2.252v8.458c0,1.374,1.212,2.431,2.572,2.246     l9.369-1.275c2.653-0.361,4.631-2.627,4.631-5.304v0C202.8,164.52,200.756,162.23,198.051,161.923z"/>
		</g>
	</g>
	<g>
		<g>
			<path class="st0" d="M198.22,160.433l-9.301-1.057c-1.068-0.121-2.134,0.22-2.934,0.933c-0.8,0.714-1.258,1.738-1.258,2.81v8.458     c0,1.088,0.47,2.122,1.29,2.837c0.69,0.602,1.571,0.929,2.476,0.929c0.169,0,0.339-0.012,0.509-0.035l9.369-1.275     c3.38-0.46,5.929-3.38,5.929-6.791C204.3,163.754,201.686,160.827,198.22,160.433z M197.967,171.06l-9.369,1.275c0,0,0,0-0.001,0     c-0.301,0.044-0.508-0.097-0.606-0.182c-0.099-0.085-0.263-0.274-0.263-0.577v-8.458c0-0.299,0.16-0.486,0.256-0.572     c0.086-0.077,0.259-0.195,0.507-0.195c0.029,0,0.06,0.001,0.091,0.005l9.3,1.057c1.949,0.222,3.419,1.868,3.419,3.829     C201.3,169.16,199.867,170.801,197.967,171.06z"/>
		</g>
	</g>
	<g>
		<g>
			<path class="st3" d="M124.904,58.015v4.146c0.996-0.212,2.035-0.321,3.096-0.321c1.061,0,2.1,0.109,3.096,0.321v-4.146H124.904z"/>
		</g>
	</g>
	<g>
		<g>
			<path class="st0" d="M131.096,56.515h-6.191c-0.828,0-1.5,0.671-1.5,1.5v4.146c0,0.453,0.204,0.881,0.557,1.166     c0.353,0.284,0.815,0.394,1.256,0.301c1.795-0.383,3.771-0.383,5.566,0c0.104,0.022,0.208,0.033,0.312,0.033     c0.341,0,0.674-0.116,0.943-0.334c0.353-0.285,0.557-0.713,0.557-1.166v-4.146C132.596,57.187,131.924,56.515,131.096,56.515z      M129.596,60.416c-0.527-0.05-1.06-0.076-1.596-0.076s-1.068,0.025-1.596,0.076v-0.9h3.191V60.416z"/>
		</g>
	</g>
	<g>
		<g>
			<path class="st3" d="M128,61.839c-8.279,0-14.99,6.711-14.99,14.99c0,0.036,0.003,0.072,0.003,0.109h29.975     c0-0.036,0.003-0.072,0.003-0.109C142.99,68.55,136.279,61.839,128,61.839z"/>
		</g>
	</g>
	<g>
		<g>
			<path class="st0" d="M128,60.339c-9.093,0-16.49,7.397-16.49,16.49l0.004,0.149c0.021,0.812,0.687,1.46,1.499,1.46h29.975     c0.808,0,1.472-0.676,1.5-1.483c0.001-0.018,0.003-0.108,0.003-0.126C144.49,67.736,137.093,60.339,128,60.339z M114.581,75.438     c0.698-6.788,6.45-12.099,13.419-12.099c6.964,0,12.712,5.304,13.417,12.099H114.581z"/>
		</g>
	</g>
	<g>
		<g>
			<path class="st3" d="M144.49,76.953H111.51c-1.386,0-2.51,1.124-2.51,2.511c0,1.386,1.124,2.51,2.51,2.51h32.979     c1.387,0,2.51-1.124,2.51-2.51C147,78.078,145.876,76.953,144.49,76.953z"/>
		</g>
	</g>
	<g>
		<g>
			<path class="st0" d="M144.489,75.454h-32.979c-2.212,0-4.011,1.799-4.011,4.01c0,2.211,1.799,4.011,4.011,4.011h32.979     c2.212,0,4.011-1.799,4.011-4.011C148.5,77.252,146.701,75.454,144.489,75.454z M144.489,80.475h-32.979     c-0.558,0-1.011-0.454-1.011-1.011c0-0.557,0.453-1.01,1.011-1.01h32.979c0.558,0,1.011,0.453,1.011,1.01     C145.5,80.021,145.047,80.475,144.489,80.475z"/>
		</g>
	</g>
	<g>
		<g>
			<path class="st2" d="M112.838,84.266c-0.43,0-2.506,2.247-2.506,4.253c0,2.006,1.122,3.013,2.506,3.013     c1.384,0,2.506-1.006,2.506-3.013C115.344,86.513,113.344,84.266,112.838,84.266z"/>
		</g>
	</g>
	<g>
		<g>
			<path class="st0" d="M112.838,82.766c-1.648,0-4.006,3.387-4.006,5.753c0,3.1,2.076,4.512,4.006,4.512     c1.93,0,4.006-1.412,4.006-4.512C116.844,86.1,114.522,82.766,112.838,82.766z M112.838,90.031c-0.667,0-1.006-0.509-1.006-1.512     c0-0.738,0.542-1.672,1.021-2.289c0.465,0.605,0.99,1.531,0.99,2.289C113.844,89.522,113.505,90.031,112.838,90.031z"/>
		</g>
	</g>
	<g>
		<g>
			<path class="st2" d="M122.946,84.266c-0.43,0-2.506,2.247-2.506,4.253c0,2.006,1.122,3.013,2.506,3.013     c1.384,0,2.506-1.006,2.506-3.013C125.452,86.513,123.452,84.266,122.946,84.266z"/>
		</g>
	</g>
	<g>
		<g>
			<path class="st0" d="M122.946,82.766c-1.647,0-4.007,3.387-4.007,5.753c0,3.1,2.077,4.512,4.007,4.512     c1.93,0,4.006-1.412,4.006-4.512C126.952,86.1,124.631,82.766,122.946,82.766z M122.946,90.031c-0.668,0-1.007-0.509-1.007-1.512     c0-0.739,0.542-1.672,1.022-2.289c0.465,0.604,0.99,1.531,0.99,2.289C123.952,89.522,123.613,90.031,122.946,90.031z"/>
		</g>
	</g>
	<g>
		<g>
			<path class="st2" d="M133.054,84.266c-0.43,0-2.506,2.247-2.506,4.253c0,2.006,1.122,3.013,2.506,3.013s2.506-1.006,2.506-3.013     C135.56,86.513,133.56,84.266,133.054,84.266z"/>
		</g>
	</g>
	<g>
		<g>
			<path class="st0" d="M133.054,82.766c-1.647,0-4.006,3.387-4.006,5.753c0,3.1,2.076,4.512,4.006,4.512s4.007-1.412,4.007-4.512     C137.061,86.1,134.739,82.766,133.054,82.766z M133.054,90.031c-0.667,0-1.006-0.509-1.006-1.512     c0-0.738,0.542-1.672,1.022-2.289c0.465,0.604,0.99,1.531,0.99,2.289C134.061,89.522,133.722,90.031,133.054,90.031z"/>
		</g>
	</g>
	<g>
		<g>
			<path class="st2" d="M143.162,84.266c-0.43,0-2.506,2.247-2.506,4.253c0,2.006,1.122,3.013,2.506,3.013     c1.384,0,2.506-1.006,2.506-3.013C145.668,86.513,143.669,84.266,143.162,84.266z"/>
		</g>
	</g>
	<g>
		<g>
			<path class="st0" d="M143.162,82.766c-1.647,0-4.006,3.387-4.006,5.753c0,3.1,2.076,4.512,4.006,4.512     c1.93,0,4.006-1.412,4.006-4.512C147.168,86.1,144.847,82.766,143.162,82.766z M143.162,90.031c-0.667,0-1.006-0.509-1.006-1.512     c0-0.738,0.542-1.672,1.021-2.289c0.465,0.605,0.99,1.531,0.99,2.289C144.168,89.522,143.829,90.031,143.162,90.031z"/>
		</g>
	</g>
	<g>
		<g>
			<path class="st8" d="M128,34.012l-7.5,6.36l8.63,7.32c13.24,0.51,24.19,10.11,26.79,22.72v0.01l45.47,38.56h1.82     c5.82,0,10.77,3.48,12.9,8.51c0.05,0.12,0.09,0.25,0.14,0.37c0.11,0.27,0.21,0.54,0.3,0.82c0.09,0.27,0.16,0.54,0.23,0.82     c0.04,0.14,0.08,0.28,0.11,0.42c0.09,0.38,0.15,0.76,0.21,1.15c0.01,0.06,0.02,0.11,0.02,0.16c0.06,0.43,0.09,0.87,0.11,1.31     v0.06c0,0.01,0,0.01,0,0.02c0,0.13,0.02,0.27,0.02,0.4v115.14H227v-120.18L128,34.012z"/>
		</g>
	</g>
</g>
</svg>
