<?xml version="1.0" encoding="iso-8859-1"?>
<!-- Generator: Adobe Illustrator 19.0.0, SVG Export Plug-In . SVG Version: 6.00 Build 0)  -->
<svg version="1.1" id="Capa_1" xmlns="http://www.w3.org/2000/svg" xmlns:xlink="http://www.w3.org/1999/xlink" x="0px" y="0px"
	 viewBox="0 0 480 480" style="enable-background:new 0 0 480 480;" xml:space="preserve">
<g>
	<path style="fill:#FFC931;" d="M348,160c0-17.672-14.328-32-32-32h-72H116H44c-17.672,0-32,14.328-32,32v224
		c0,17.672,14.328,32,32,32h128h144c17.672,0,32-14.328,32-32v-80v-64V160z M276,384h16H276z M308,384h16H308z"/>
	<path style="fill:#FFC931;" d="M452,152c-8.84,0-16,7.16-16,16v16v176v16c0,8.84,7.16,16,16,16s16-7.16,16-16V168
		C468,159.16,460.84,152,452,152z"/>
</g>
<polygon style="fill:#5086F2;" points="348,240 348,304 436,360 436,184 "/>
<g>
	<path style="fill:#E68F39;" d="M180,64c0-35.344-28.656-64-64-64S52,28.656,52,64s28.656,64,64,64S180,99.344,180,64z M76,64h16H76
		z M116,104V88V104z M116,40V24V40z M140,64h16H140z"/>
	<path style="fill:#E68F39;" d="M244,128c35.344,0,64-28.656,64-64S279.344,0,244,0s-64,28.656-64,64S208.656,128,244,128z M284,64
		h-16H284z M244,24v16V24z M244,88v16V88z M220,64h-16H220z"/>
</g>
<path style="fill:#E6B52C;" d="M316,128h-72h-72v288h144c17.672,0,32-14.328,32-32v-80v-64v-80C348,142.328,333.672,128,316,128z"/>
<path style="fill:#C9F4F3;" d="M172,184c-48.6,0-88,39.4-88,88s39.4,88,88,88s88-39.4,88-88S220.6,184,172,184z M148,304v-64l72,32
	L148,304z"/>
<polygon style="fill:#E68F39;" points="148,304 220,272 148,240 "/>
<g>
	<rect x="164" y="416" style="fill:#2C2F47;" width="16" height="64"/>
	
		<rect x="183.99" y="423.716" transform="matrix(-0.7071 0.7071 -0.7071 -0.7071 647.3574 635.8477)" style="fill:#2C2F47;" width="16" height="56.559"/>
	
		<rect x="123.699" y="444.027" transform="matrix(-0.7071 0.7071 -0.7071 -0.7071 579.0748 664.1938)" style="fill:#2C2F47;" width="56.559" height="16"/>
</g>
<rect id="SVGCleanerId_0" x="236" y="24" style="fill:#2C2F47;" width="16" height="16"/>
<rect id="SVGCleanerId_1" x="236" y="88" style="fill:#2C2F47;" width="16" height="16"/>
<g>
	<rect id="SVGCleanerId_0_1_" x="236" y="24" style="fill:#2C2F47;" width="16" height="16"/>
</g>
<g>
	<rect id="SVGCleanerId_1_1_" x="236" y="88" style="fill:#2C2F47;" width="16" height="16"/>
</g>
<rect id="SVGCleanerId_2" x="268" y="56" style="fill:#2C2F47;" width="16" height="16"/>
<rect id="SVGCleanerId_3" x="204" y="56" style="fill:#2C2F47;" width="16" height="16"/>
<g>
	<rect id="SVGCleanerId_2_1_" x="268" y="56" style="fill:#2C2F47;" width="16" height="16"/>
</g>
<g>
	<rect id="SVGCleanerId_3_1_" x="204" y="56" style="fill:#2C2F47;" width="16" height="16"/>
</g>
<rect id="SVGCleanerId_4" x="108" y="24" style="fill:#2C2F47;" width="16" height="16"/>
<rect id="SVGCleanerId_5" x="108" y="88" style="fill:#2C2F47;" width="16" height="16"/>
<g>
	<rect id="SVGCleanerId_4_1_" x="108" y="24" style="fill:#2C2F47;" width="16" height="16"/>
</g>
<g>
	<rect id="SVGCleanerId_5_1_" x="108" y="88" style="fill:#2C2F47;" width="16" height="16"/>
</g>
<rect id="SVGCleanerId_6" x="140" y="56" style="fill:#2C2F47;" width="16" height="16"/>
<rect id="SVGCleanerId_7" x="76" y="56" style="fill:#2C2F47;" width="16" height="16"/>
<g>
	<rect id="SVGCleanerId_6_1_" x="140" y="56" style="fill:#2C2F47;" width="16" height="16"/>
</g>
<g>
	<rect id="SVGCleanerId_7_1_" x="76" y="56" style="fill:#2C2F47;" width="16" height="16"/>
</g>
<g>
	<rect x="308" y="376" style="fill:#2C2F47;" width="16" height="16"/>
	<rect x="276" y="376" style="fill:#2C2F47;" width="16" height="16"/>
	<rect x="244" y="376" style="fill:#2C2F47;" width="16" height="16"/>
</g>
<g>
</g>
<g>
</g>
<g>
</g>
<g>
</g>
<g>
</g>
<g>
</g>
<g>
</g>
<g>
</g>
<g>
</g>
<g>
</g>
<g>
</g>
<g>
</g>
<g>
</g>
<g>
</g>
<g>
</g>
</svg>
