<svg id="Capa_1" enable-background="new 0 0 512.022 512.022" height="512" viewBox="0 0 512.022 512.022" width="512" xmlns="http://www.w3.org/2000/svg"><g><g><path d="m441.981 295.808-112.08 17.86-182.81-200.75-42.48 42.47 219.21 240.79c5.92 6.5 14.05 9.81 22.21 9.81h95.98v-110z" fill="#ff7d97"/><path d="m502.011 321.398v24.59c0 33.14-26.86 60-60 60v-110l-.03-.18 25.1-4c18.28-3.05 34.93 11.06 34.93 29.59z" fill="#eefaff"/><path d="m492.201 17.798c12.26 11.13 13.15 30.12 2 42.38l-86.75 95.25-42.49-42.48 84.86-93.15c11.16-12.23 30.09-13.15 42.38-2z" fill="#eefaff"/><path d="m188.201 396.178c-5.92 6.5-14.05 9.81-22.2 9.81h-95.99v-110l.03-.18 112.08 17.86c153.915-168.959 91.427-100.368 182.84-200.72l42.49 42.48c-223.691 245.634-201.51 221.27-219.25 240.75z" fill="#9bc5ff"/><path d="m286.011 441.988c16.57 0 30 13.43 30 30s-13.43 30-30 30h-60c-16.57 0-30-13.43-30-30s13.43-30 30-30z" fill="#8690a6"/><g fill="#eefaff"><path d="m62.201 19.798 84.89 93.12-42.48 42.47-86.79-95.21c-11.15-12.26-10.26-31.25 2.01-42.38 12.29-11.15 31.21-10.23 42.37 2z"/><path d="m70.041 295.808-.03.18v110c-33.14 0-60-26.86-60-60v-24.59c0-18.53 16.65-32.64 34.93-29.59z"/></g></g><g><path d="m286.011 431.988h-60c-22.056 0-40 17.944-40 40s17.944 40 40 40h60c22.056 0 40-17.944 40-40s-17.944-40-40-40zm0 60h-60c-11.028 0-20-8.972-20-20s8.972-20 20-20h60c11.028 0 20 8.972 20 20s-8.973 20-20 20z"/><path d="m201.973 277.025-23.61 25.918-131.777-20.999c-24.379-4.07-46.576 14.761-46.576 39.454v24.59c0 38.598 31.402 70 70 70h95.99c11.238 0 22.024-4.766 29.593-13.077l60.469-66.397 60.365 66.397c7.568 8.311 18.358 13.077 29.603 13.077h95.98c38.598 0 70-31.402 70-70v-24.59c0-24.821-22.345-43.496-46.504-39.466l-131.843 21.01-23.494-25.84 21.961-24.114c3.719-4.083 3.423-10.408-.661-14.126-4.083-3.718-10.407-3.423-14.126.661-216.081 237.266-102.166 112.183-136.536 149.922-3.788 4.158-9.184 6.543-14.807 6.543h-85.99v-88.465l100.536 16.021c3.326.528 6.697-.65 8.967-3.142 5.772-6.336 175.592-192.763 175.789-192.979l28.329 28.329-15.718 17.259c-3.719 4.083-3.423 10.408.661 14.126 4.083 3.719 10.408 3.422 14.126-.661 11.856-13.018 97.222-106.75 108.897-119.57 14.875-16.356 13.694-41.651-2.679-56.514-16.307-14.794-41.647-13.597-56.491 2.672l-186.344 204.561-186.496-204.568c-14.838-16.26-40.173-17.456-56.475-2.666-16.355 14.836-17.594 40.127-2.681 56.524.104.114 188.923 207.238 191.542 210.11zm266.753 24.647c12.183-2.036 23.285 7.383 23.285 19.727v24.59c0 24.146-17.205 44.348-40 48.994v-90.647zm-146.224 18.723c2.269 2.495 5.642 3.678 8.973 3.148l100.536-16.021v88.466h-85.98c-5.629 0-11.029-2.385-14.811-6.537l-61.63-67.789 27.054-29.707zm-262.491 74.587c-22.795-4.646-40-24.847-40-48.994v-24.59c0-12.32 11.05-21.769 23.356-19.715l16.644 2.652zm397.196-368.443c7.429-8.141 20.113-8.739 28.271-1.336 8.173 7.419 8.761 20.069 1.329 28.242l-79.694 87.504-28.328-28.328zm-241.708 235.637-97.065-106.469 28.32-28.32 95.803 105.086zm-188.949-236.972c8.16-7.403 20.839-6.803 28.261 1.331l78.454 86.056-28.32 28.32-79.726-87.462c-7.448-8.188-6.84-20.834 1.331-28.245z"/><circle cx="355.01" cy="212.988" r="10"/></g></g></svg>