<?xml version="1.0"?>
<svg xmlns="http://www.w3.org/2000/svg" viewBox="0 0 64 64" width="512" height="512"><g id="Seafood"><path d="M61,25.33V37a14.966,14.966,0,0,1-.36,3.3A15.806,15.806,0,0,1,54,44a15.646,15.646,0,0,1-5.55.47A10.654,10.654,0,0,0,49,41V37a5.787,5.787,0,0,0-.38-2.09A16.634,16.634,0,0,0,54,33,17.243,17.243,0,0,0,61,25.33Z" style="fill:#ffbcab"/><path d="M61,25v.33A17.243,17.243,0,0,1,54,33a16.634,16.634,0,0,1-5.38,1.91,5.985,5.985,0,0,0-5.23-3.89A20.519,20.519,0,0,0,48.78,15H51A10,10,0,0,1,61,25Z" style="fill:#ff7956"/><path d="M54,44a15.806,15.806,0,0,0,6.64-3.7c-1.4,6.41-6.78,11.53-13.38,14.78h-.01A13.073,13.073,0,0,1,43,53a12.431,12.431,0,0,1-1.57-1.35c3.28-1.58,5.92-3.92,7.02-7.18A15.646,15.646,0,0,0,54,44Z" style="fill:#ff7956"/><path d="M61,25.33V37a14.966,14.966,0,0,1-.36,3.3,15.709,15.709,0,0,1-9.56,4.2,16.227,16.227,0,0,0,1.56-4.2A14.966,14.966,0,0,0,53,37V33.52c.33-.16.67-.33,1-.52A17.243,17.243,0,0,0,61,25.33Z" style="fill:#ff9478"/><path d="M61,25v.33A17.243,17.243,0,0,1,54,33c-.33.19-.67.36-1,.52V25a9.956,9.956,0,0,0-4.12-8.08,19.064,19.064,0,0,0-.1-1.92H51A10,10,0,0,1,61,25Z" style="fill:#ff6243"/><path d="M60.64,40.3c-1.4,6.41-6.78,11.53-13.38,14.78h-.01A13.073,13.073,0,0,1,43,53c-.01-.01-.03-.02-.04-.03a23.925,23.925,0,0,0,8.12-8.47,15.709,15.709,0,0,0,9.56-4.2Z" style="fill:#ff6243"/><path d="M48.78,15a20.519,20.519,0,0,1-5.39,16.02A2.549,2.549,0,0,0,43,31H32c1.62-1.82,1.84-4.48,2-8a13.252,13.252,0,0,0-2-8Z" style="fill:#ffbcab"/><path d="M43,53a13.073,13.073,0,0,0,4.25,2.08A37.866,37.866,0,0,1,31,59l2-5a28.056,28.056,0,0,0,8.43-2.35A12.431,12.431,0,0,0,43,53Z" style="fill:#ffbcab"/><path d="M32,15a13.252,13.252,0,0,1,2,8c-.16,3.52-.38,6.18-2,8H21A11.983,11.983,0,0,1,9,19V15H32ZM17,20a2,2,0,1,0-2,2A2.006,2.006,0,0,0,17,20Z" style="fill:#ff7956"/><path d="M33,54l-2,5c-1.97.92-7.87,3.36-14,1-3.16-1.22-6-5-6-5s10.92.66,12-2c.93-2.29-5-8-5-8s5.48-1.05,9,1A13.92,13.92,0,0,1,33,54Z" style="fill:#ff7956"/><circle cx="15" cy="20" r="2" style="fill:#ffde55"/><path d="M13,4H62V2H13A11.007,11.007,0,0,0,2,13v1A10.97,10.97,0,0,0,9.14,24.29,13,13,0,0,0,21,32h1.59l-3.3,3.29a1.009,1.009,0,0,0-.29.76.972.972,0,0,0,.36.72l6,5,1.28-1.54-5.16-4.3L25.41,32h3.18l-3.3,3.29a1.009,1.009,0,0,0-.29.76.972.972,0,0,0,.36.72l6,5,1.28-1.54-5.16-4.3L31.41,32h3.18l-3.3,3.29a1.009,1.009,0,0,0-.29.76.972.972,0,0,0,.36.72l6,5,1.28-1.54-5.16-4.3L37.41,32h3.18l-3.3,3.29a1.009,1.009,0,0,0-.29.76.972.972,0,0,0,.36.72l6,5,1.28-1.54-5.16-4.3,3.9-3.89A4.986,4.986,0,0,1,48,37v4c0,8.76-10.08,11.24-14.31,11.89a14.561,14.561,0,0,0-6.19-7.75c-3.8-2.22-9.45-1.17-9.69-1.12a1,1,0,0,0-.77.7,1.011,1.011,0,0,0,.27,1c2.85,2.74,5.12,6.03,4.76,6.9-.43,1.07-5.58,1.71-11.01,1.38a.975.975,0,0,0-.94.53.99.99,0,0,0,.08,1.07c.12.16,3.05,4.03,6.44,5.33A16.007,16.007,0,0,0,22.49,62a21.531,21.531,0,0,0,8.73-2C44.15,59.9,62,51.17,62,37V25A11.007,11.007,0,0,0,51,14H15V13a3.009,3.009,0,0,1,3-3H56V8H18a5,5,0,0,0-5,5v1H9a1,1,0,0,0-1,1v4a12.976,12.976,0,0,0,.28,2.66A8.978,8.978,0,0,1,4,14V13A9.014,9.014,0,0,1,13,4ZM30.22,58.25c-2.75,1.23-7.77,2.78-12.86.82a12.7,12.7,0,0,1-4.08-2.98c3.74.06,9.65-.26,10.65-2.71.84-2.09-1.82-5.5-3.78-7.62a12.05,12.05,0,0,1,6.35,1.1,12.714,12.714,0,0,1,5.44,7.11Zm2.27-.29,1.23-3.06a28.769,28.769,0,0,0,7.54-2.04c.36.32.74.65,1.14.94a14.082,14.082,0,0,0,2.23,1.35A37.731,37.731,0,0,1,32.49,57.96ZM47.16,54a12.143,12.143,0,0,1-3.57-1.81c-.14-.1-.26-.2-.39-.3a13.324,13.324,0,0,0,5.91-6.39c.28.01.55.04.82.04a16.444,16.444,0,0,0,8.77-2.51C56.63,47.71,52.27,51.43,47.16,54ZM60,37a14.759,14.759,0,0,1-.27,2.76,14.568,14.568,0,0,1-5.99,3.27,14.184,14.184,0,0,1-4.01.5A11.609,11.609,0,0,0,50,41V37a7.423,7.423,0,0,0-.13-1.34,17.25,17.25,0,0,0,4.62-1.79A17.686,17.686,0,0,0,60,28.93ZM49.83,16H51a9.014,9.014,0,0,1,9,9v.09a16.187,16.187,0,0,1-6.49,7.04,15.666,15.666,0,0,1-4.31,1.63,7.088,7.088,0,0,0-3.96-3.39,21.3,21.3,0,0,0,3.72-7.08A21.588,21.588,0,0,0,49.83,16Zm-2,0a19.307,19.307,0,0,1-4.88,14H33.83c.86-1.83,1.04-4.13,1.17-6.95A14.861,14.861,0,0,0,33.7,16ZM10,16H31.44A12.685,12.685,0,0,1,33,22.95c-.15,3.22-.35,5.5-1.5,7.05H21A11.007,11.007,0,0,1,10,19Z"/><path d="M18,20a3,3,0,1,0-3,3A3,3,0,0,0,18,20Zm-4,0a1,1,0,1,1,1,1A1,1,0,0,1,14,20Z"/></g></svg>
